# xmcd
#
# Track frame offsets:
#	150
#	13773
#	28683
#	38823
#	56273
#	67653
#	82813
#	94537
#	108583
#	120358
#	132584
#	144712
#
# Disc length: 2091 seconds
# Revision: 0
# Processed by: cddbd v1.5.2PL0 Copyright (c) Steve Scherf et al.
# Submitted via: dBpowerAMP V12.0
#
DISCID=9308290c
DTITLE=Audie Blaylock and Redline - I'm Going Back To Old Kentucky (A Bill Monroe Celebration)
DYEAR=2011
DGENRE=Country
TTITLE0=I'm Goin Back To Old Kentucky
TTITLE1=You'll Find Her Name Written There
TTITLE2=In Despair
TTITLE3=On The Old Kentucky Shore
TTITLE4=Out In The Cold World
TTITLE5=When The Golden Leaves Begin To Fall
TTITLE6=My Little Georgia Rose
TTITLE7=Mighty Dark To Travel
TTITLE8=Cry Cry Darlin
TTITLE9=I Was Left On The Street
TTITLE10=Lord Lead Me On
TTITLE11=Tall Timber
EXTD=
EXTT0=
EXTT1=
EXTT2=
EXTT3=
EXTT4=
EXTT5=
EXTT6=
EXTT7=
EXTT8=
EXTT9=
EXTT10=
EXTT11=
PLAYORDER=
